<?xml version="1.0" standalone="no"?>
<!DOCTYPE svg PUBLIC "-//W3C//DTD SVG 20010904//EN"
 "http://www.w3.org/TR/2001/REC-SVG-20010904/DTD/svg10.dtd">
<svg version="1.0" xmlns="http://www.w3.org/2000/svg"
 width="8000.000000pt" height="8000.000000pt" viewBox="0 0 6251.000000 6250.000000"
 preserveAspectRatio="xMidYMid meet">

<g transform="translate(0.000000,6250.000000) scale(0.100000,-0.100000)"
fill="red" stroke="none">
<path d="M18080 50013 c-584 -63 -1044 -478 -1167 -1053 -17 -82 -18 -604 -18
-14735 0 -14241 1 -14652 19 -14735 118 -538 525 -936 1060 -1038 86 -16 858
-17 13286 -17 12682 0 13198 1 13284 18 270 55 500 173 682 352 196 192 330
444 381 715 17 91 18 720 18 14705 0 13985 -1 14614 -18 14705 -51 271 -176
509 -367 701 -182 183 -394 299 -665 363 l-90 21 -13185 1 c-7252 0 -13201 -1
-13220 -3z m10465 -4752 c60 -27 103 -68 132 -125 23 -43 27 -67 31 -161 l4
-111 -1785 -3309 -1786 -3310 -643 -1115 -644 -1115 -674 -3 c-768 -3 -738 -5
-820 77 -67 67 -80 113 -80 281 l0 136 1967 3550 c1115 2012 1968 3563 1971
3581 l4 33 -1683 2 -1684 3 -41 22 c-56 30 -103 79 -128 133 -21 44 -21 58
-21 650 l0 605 27 51 c30 58 73 98 133 125 38 18 152 19 2860 19 2708 0 2822
-1 2860 -19z m10307 -14 c49 -29 97 -88 116 -146 9 -24 12 -201 12 -616 0
-644 1 -635 -65 -712 -19 -22 -58 -51 -87 -64 l-53 -24 -2002 -3 -2003 -2 0
-3035 0 -3035 1988 0 c2211 0 2053 5 2133 -67 22 -20 50 -55 62 -77 22 -41 22
-43 22 -656 0 -581 -1 -617 -19 -650 -26 -49 -74 -98 -121 -123 l-40 -22
-2770 -3 c-3043 -2 -2829 -7 -2907 58 -20 17 -49 56 -65 88 l-28 57 0 4435 0
4435 27 50 c32 62 70 98 128 124 45 21 45 21 2835 18 l2790 -2 47 -28z m-687
-3746 c60 -27 103 -67 133 -125 l27 -51 0 -605 c0 -592 0 -606 -21 -650 -26
-58 -76 -108 -134 -134 -45 -21 -48 -21 -1335 -21 l-1290 0 -3 803 -2 802
1292 0 c1230 0 1295 -1 1333 -19z m-9892 -3895 c55 -20 103 -61 134 -114 l28
-47 3 -609 c3 -662 3 -656 -52 -729 -14 -19 -50 -47 -78 -63 l-53 -29 -1794
-3 c-1633 -2 -1793 -1 -1787 14 4 11 773 1347 913 1587 2 4 599 7 1326 7 1078
-1 1329 -3 1360 -14z m8463 -5491 c432 -41 838 -144 1234 -312 108 -46 386
-185 452 -225 l38 -23 -475 -713 c-261 -391 -477 -712 -480 -712 -3 0 -28 11
-55 25 -125 63 -343 139 -515 180 -218 51 -304 60 -580 60 -276 0 -362 -9
-580 -60 -785 -184 -1476 -750 -1865 -1525 -231 -461 -342 -934 -342 -1460 0
-322 32 -567 116 -870 107 -391 314 -794 571 -1115 101 -126 311 -337 435
-437 225 -181 529 -354 785 -446 129 -47 358 -105 500 -128 138 -21 482 -30
631 -15 936 94 1768 689 2220 1589 207 411 316 850 331 1327 27 868 -294 1702
-889 2310 l-117 121 465 699 c257 385 470 704 474 708 4 4 65 -46 136 -111
534 -491 980 -1178 1241 -1912 284 -801 363 -1708 222 -2570 -143 -874 -521
-1703 -1078 -2365 -101 -120 -343 -367 -464 -473 -650 -570 -1410 -916 -2272
-1033 -220 -30 -660 -37 -895 -15 -995 95 -1893 521 -2609 1237 -773 773
-1244 1782 -1378 2954 -23 201 -26 846 -5 1045 67 640 224 1204 486 1745 701
1447 2031 2396 3536 2524 166 14 556 12 726 -4z m-10201 -142 c350 -58 560
-125 861 -273 750 -370 1294 -1042 1500 -1849 64 -254 79 -382 79 -691 0 -180
-5 -306 -13 -365 -77 -508 -266 -945 -584 -1347 -108 -138 -356 -382 -498
-492 -222 -172 -466 -318 -712 -428 l-116 -53 18 -35 c10 -19 414 -778 898
-1686 483 -908 885 -1667 892 -1688 7 -21 10 -67 8 -106 -5 -91 -41 -151 -118
-194 l-55 -31 -745 -3 c-569 -2 -756 0 -790 10 -98 27 -56 -52 -999 1853
l-867 1750 -352 3 -352 2 0 715 0 715 738 0 c799 0 843 3 1012 55 469 148 831
569 914 1064 20 120 20 323 1 437 -81 461 -439 865 -893 1008 -182 57 -158 56
-1378 56 l-1124 0 -1 -732 c-1 -403 -5 -2083 -8 -3733 l-6 -3000 -28 -57 c-16
-32 -45 -71 -65 -88 -75 -62 -63 -61 -783 -58 -648 3 -654 3 -694 25 -52 28
-89 68 -114 123 l-21 45 0 4440 0 4440 21 45 c32 71 84 118 159 141 14 4 939
7 2055 5 2026 -2 2030 -2 2160 -23z"/>
<path d="M20792 15956 c-313 -60 -604 -254 -778 -521 -356 -546 -207 -1282
332 -1641 203 -135 411 -197 664 -198 205 0 361 34 525 117 154 77 305 199
305 246 0 15 -35 60 -107 134 -58 62 -113 118 -121 125 -25 19 -46 14 -98 -23
-264 -188 -541 -223 -799 -100 -235 112 -390 336 -426 611 -42 328 157 677
458 802 238 100 531 57 747 -108 36 -28 74 -50 85 -50 22 0 241 218 255 255
13 34 -9 62 -111 139 -114 86 -262 159 -388 192 -87 23 -124 27 -285 30 -129
2 -207 -1 -258 -10z"/>
<path d="M23800 15949 c-638 -137 -1039 -752 -915 -1405 20 -107 52 -199 108
-309 287 -572 999 -805 1583 -520 334 163 561 455 641 825 28 129 24 383 -6
510 -90 370 -315 648 -655 811 -165 79 -265 101 -481 105 -153 3 -194 1 -275
-17z m443 -428 c132 -38 227 -92 326 -186 340 -319 316 -863 -50 -1150 -146
-114 -280 -159 -469 -159 -89 0 -144 5 -190 18 -199 54 -386 201 -479 375
-106 199 -120 438 -38 641 104 256 335 439 612 484 59 9 221 -4 288 -23z"/>
<path d="M27870 15948 c-13 -30 -400 -2219 -400 -2262 0 -54 7 -56 206 -56
149 0 184 3 194 15 7 8 56 298 109 645 53 346 100 630 105 630 5 1 141 -293
303 -652 162 -359 301 -659 310 -665 25 -19 107 -16 130 5 11 9 150 310 308
667 159 358 290 652 292 654 1 2 5 2 8 -1 3 -2 49 -288 103 -635 57 -366 104
-638 111 -647 11 -14 43 -16 202 -16 187 0 190 0 199 23 8 17 -37 290 -189
1155 -110 623 -205 1140 -212 1148 -9 11 -29 14 -77 12 l-64 -3 -368 -790
c-203 -434 -372 -791 -377 -792 -4 -1 -169 345 -367 770 -197 424 -365 782
-372 795 -13 19 -23 22 -79 22 -58 0 -67 -2 -75 -22z"/>
<path d="M35048 15953 c-8 -10 -248 -523 -533 -1141 -460 -996 -518 -1126
-509 -1150 l9 -27 191 -3 c182 -2 191 -2 210 19 10 11 57 105 104 207 l86 187
497 0 498 0 84 -185 c46 -102 93 -195 104 -207 19 -22 25 -23 205 -23 154 0
187 3 200 16 9 8 16 22 16 30 0 15 -1026 2262 -1042 2282 -16 19 -102 15 -120
-5z m218 -1158 c85 -187 157 -350 160 -362 l6 -23 -325 0 c-179 0 -328 3 -330
8 -2 4 58 147 134 317 76 171 148 332 159 358 12 27 26 47 31 45 5 -2 80 -156
165 -343z"/>
<path d="M37497 15952 c-16 -17 -17 -111 -17 -1148 0 -1006 2 -1132 16 -1152
15 -21 20 -22 198 -22 159 0 185 2 197 17 12 13 15 146 19 739 l5 723 690
-759 690 -759 53 -1 c39 0 57 5 72 20 20 20 20 33 20 1153 0 1009 -2 1135 -16
1155 -15 21 -20 22 -198 22 -164 0 -185 -2 -199 -18 -15 -17 -17 -84 -19 -714
l-3 -696 -685 729 -685 728 -61 1 c-47 0 -65 -4 -77 -18z"/>
<path d="M31416 15925 c-15 -15 -16 -117 -16 -1144 0 -863 3 -1130 12 -1139
18 -18 382 -17 397 1 7 10 12 140 13 418 l3 404 280 5 c270 6 283 7 360 33
244 81 432 286 492 535 19 82 22 245 4 327 -53 245 -244 453 -496 542 l-80 28
-476 3 c-429 3 -478 1 -493 -13z m925 -413 c73 -29 137 -85 174 -153 27 -49
30 -63 30 -144 0 -76 -4 -99 -26 -146 -34 -72 -96 -134 -168 -168 -55 -25 -61
-26 -293 -29 l-238 -3 0 329 c0 181 3 332 7 336 4 4 109 6 233 4 206 -3 230
-5 281 -26z"/>
<path d="M40724 15915 c-9 -13 -13 -33 -9 -44 3 -11 177 -270 385 -576 l380
-556 0 -539 c0 -476 2 -540 16 -554 13 -13 45 -16 199 -16 179 0 184 1 199 22
14 20 16 90 16 559 l0 536 382 549 c251 361 383 560 386 580 8 60 -6 64 -228
64 l-198 0 -24 -29 c-12 -15 -135 -191 -273 -389 -137 -199 -254 -360 -260
-358 -5 1 -123 166 -263 367 -139 200 -262 374 -272 387 -19 21 -25 22 -220
22 l-200 0 -16 -25z"/>
<path d="M26013 14105 c-135 -37 -343 -184 -343 -243 0 -20 139 -162 158 -162
8 0 39 23 70 50 81 72 151 103 232 104 79 0 130 -16 176 -57 84 -73 97 -178
36 -298 -31 -61 -262 -369 -554 -739 -133 -167 -138 -175 -138 -221 0 -33 4
-49 16 -53 9 -3 233 -6 498 -6 362 0 485 3 494 12 16 16 16 210 0 226 -9 9
-84 12 -275 12 -145 0 -263 3 -263 8 0 4 50 70 111 147 382 481 449 594 449
765 0 226 -143 401 -372 455 -79 18 -226 18 -295 0z"/>
</g>
</svg>
